<mxfile host="app.diagrams.net" modified="2023-10-16T11:16:42.789Z" agent="Mozilla/5.0 (Windows NT 10.0; Win64; x64) AppleWebKit/537.36 (KHTML, like Gecko) Chrome/118.0.0.0 Safari/537.36" etag="m5lDsWYbKWdwwUf3SYDR" version="22.0.4" type="device">
  <diagram name="Page-1" id="e7e014a7-5840-1c2e-5031-d8a46d1fe8dd">
    <mxGraphModel dx="1867" dy="743" grid="1" gridSize="10" guides="1" tooltips="1" connect="1" arrows="1" fold="1" page="1" pageScale="1" pageWidth="1169" pageHeight="826" background="none" math="0" shadow="0">
      <root>
        <mxCell id="0" />
        <mxCell id="1" parent="0" />
        <mxCell id="2" value="expertAddEditBooking" style="swimlane;whiteSpace=wrap;fillColor=none;strokeColor=none;gradientColor=none;" parent="1" vertex="1">
          <mxGeometry x="190" y="51" width="1280" height="1040" as="geometry" />
        </mxCell>
        <mxCell id="4iqiWPbh7gGqYWm0sbac-49" value="Purchase Order" style="" vertex="1" parent="2">
          <mxGeometry x="407" y="80" width="110" height="50" as="geometry" />
        </mxCell>
        <mxCell id="4iqiWPbh7gGqYWm0sbac-48" value="Slot Capture" style="" vertex="1" parent="2">
          <mxGeometry x="402" y="165" width="110" height="50" as="geometry" />
        </mxCell>
        <mxCell id="4iqiWPbh7gGqYWm0sbac-60" value="" style="edgeStyle=elbowEdgeStyle;elbow=horizontal;verticalAlign=bottom;endArrow=open;endSize=8;strokeColor=#FF0000;endFill=1;rounded=0" edge="1" parent="2">
          <mxGeometry x="74.5" y="68" as="geometry">
            <mxPoint x="457" y="450" as="targetPoint" />
            <mxPoint x="456.5" y="410" as="sourcePoint" />
          </mxGeometry>
        </mxCell>
        <mxCell id="4iqiWPbh7gGqYWm0sbac-47" value="payment Service" style="" vertex="1" parent="2">
          <mxGeometry x="402" y="450" width="110" height="50" as="geometry" />
        </mxCell>
        <mxCell id="4iqiWPbh7gGqYWm0sbac-46" value="Payment" style="" vertex="1" parent="2">
          <mxGeometry x="402" y="540" width="110" height="50" as="geometry" />
        </mxCell>
        <mxCell id="4iqiWPbh7gGqYWm0sbac-69" value="" style="edgeStyle=elbowEdgeStyle;elbow=vertical;verticalAlign=bottom;endArrow=open;endSize=8;strokeColor=#FF0000;endFill=1;rounded=0" edge="1" parent="2">
          <mxGeometry x="74.5" y="68" as="geometry">
            <mxPoint x="455.8299999999999" y="540" as="targetPoint" />
            <mxPoint x="455.3299999999999" y="500" as="sourcePoint" />
          </mxGeometry>
        </mxCell>
        <mxCell id="4iqiWPbh7gGqYWm0sbac-82" value="payment hold" style="" vertex="1" parent="2">
          <mxGeometry x="402" y="630" width="110" height="50" as="geometry" />
        </mxCell>
        <mxCell id="4iqiWPbh7gGqYWm0sbac-70" value="" style="edgeStyle=elbowEdgeStyle;elbow=horizontal;verticalAlign=bottom;endArrow=open;endSize=8;strokeColor=#FF0000;endFill=1;rounded=0" edge="1" parent="2">
          <mxGeometry x="74.5" y="68" as="geometry">
            <mxPoint x="457.8299999999999" y="630" as="targetPoint" />
            <mxPoint x="457.3299999999999" y="590" as="sourcePoint" />
          </mxGeometry>
        </mxCell>
        <mxCell id="4iqiWPbh7gGqYWm0sbac-81" value="Final Purchase order" style="" vertex="1" parent="2">
          <mxGeometry x="402" y="720" width="110" height="50" as="geometry" />
        </mxCell>
        <mxCell id="4iqiWPbh7gGqYWm0sbac-58" value="" style="edgeStyle=elbowEdgeStyle;elbow=vertical;verticalAlign=bottom;endArrow=open;endSize=8;strokeColor=#FF0000;endFill=1;rounded=0" edge="1" parent="2">
          <mxGeometry x="74.5" y="68" as="geometry">
            <mxPoint x="457.5" y="720" as="targetPoint" />
            <mxPoint x="457" y="680" as="sourcePoint" />
          </mxGeometry>
        </mxCell>
        <mxCell id="4iqiWPbh7gGqYWm0sbac-45" value="Sell order" style="" vertex="1" parent="2">
          <mxGeometry x="402" y="810" width="110" height="50" as="geometry" />
        </mxCell>
        <mxCell id="4iqiWPbh7gGqYWm0sbac-65" value="" style="edgeStyle=elbowEdgeStyle;elbow=vertical;verticalAlign=bottom;endArrow=open;endSize=8;strokeColor=#FF0000;endFill=1;rounded=0" edge="1" parent="2">
          <mxGeometry x="74.5" y="68" as="geometry">
            <mxPoint x="457.5" y="810" as="targetPoint" />
            <mxPoint x="457" y="770" as="sourcePoint" />
          </mxGeometry>
        </mxCell>
        <mxCell id="4iqiWPbh7gGqYWm0sbac-89" value="booking Service" style="" vertex="1" parent="2">
          <mxGeometry x="402" y="900" width="110" height="50" as="geometry" />
        </mxCell>
        <mxCell id="4iqiWPbh7gGqYWm0sbac-67" value="" style="edgeStyle=elbowEdgeStyle;elbow=vertical;verticalAlign=bottom;endArrow=open;endSize=8;strokeColor=#FF0000;endFill=1;rounded=0" edge="1" parent="2">
          <mxGeometry x="74.5" y="68" as="geometry">
            <mxPoint x="457.5" y="900" as="targetPoint" />
            <mxPoint x="457" y="860" as="sourcePoint" />
          </mxGeometry>
        </mxCell>
        <mxCell id="4iqiWPbh7gGqYWm0sbac-66" value="" style="edgeStyle=elbowEdgeStyle;elbow=vertical;verticalAlign=bottom;endArrow=open;endSize=8;strokeColor=#FF0000;endFill=1;rounded=0" edge="1" parent="2">
          <mxGeometry x="74.5" y="68" as="geometry">
            <mxPoint x="455.83" y="990" as="targetPoint" />
            <mxPoint x="455.33" y="950" as="sourcePoint" />
          </mxGeometry>
        </mxCell>
        <mxCell id="4iqiWPbh7gGqYWm0sbac-88" value="Invoice" style="" vertex="1" parent="2">
          <mxGeometry x="402" y="990" width="110" height="50" as="geometry" />
        </mxCell>
        <mxCell id="4iqiWPbh7gGqYWm0sbac-75" value="" style="html=1;verticalAlign=bottom;endArrow=open;dashed=1;endSize=8;curved=0;rounded=0;fillColor=#FF3333;entryX=0;entryY=0.5;entryDx=0;entryDy=0;" edge="1" parent="2" target="4iqiWPbh7gGqYWm0sbac-49">
          <mxGeometry relative="1" as="geometry">
            <mxPoint x="402" y="654.17" as="sourcePoint" />
            <mxPoint x="402" y="110" as="targetPoint" />
            <Array as="points">
              <mxPoint x="267" y="654" />
              <mxPoint x="267" y="410" />
              <mxPoint x="267" y="110" />
            </Array>
          </mxGeometry>
        </mxCell>
        <mxCell id="4iqiWPbh7gGqYWm0sbac-78" value="" style="html=1;verticalAlign=bottom;endArrow=open;dashed=1;endSize=8;curved=0;rounded=0;fillColor=#FF3333;entryX=0;entryY=0.5;entryDx=0;entryDy=0;exitX=0;exitY=0.5;exitDx=0;exitDy=0;" edge="1" parent="2" source="4iqiWPbh7gGqYWm0sbac-57" target="4iqiWPbh7gGqYWm0sbac-48">
          <mxGeometry relative="1" as="geometry">
            <mxPoint x="417" y="369.17" as="sourcePoint" />
            <mxPoint x="347" y="260" as="targetPoint" />
            <Array as="points">
              <mxPoint x="347" y="275" />
              <mxPoint x="347" y="190" />
            </Array>
          </mxGeometry>
        </mxCell>
        <mxCell id="4iqiWPbh7gGqYWm0sbac-68" value="" style="edgeStyle=elbowEdgeStyle;elbow=vertical;verticalAlign=bottom;endArrow=open;endSize=8;strokeColor=#FF0000;endFill=1;rounded=0;entryX=0.5;entryY=0;entryDx=0;entryDy=0;" edge="1" parent="2" target="4iqiWPbh7gGqYWm0sbac-48">
          <mxGeometry x="74.5" y="118" as="geometry">
            <mxPoint x="457" y="155" as="targetPoint" />
            <mxPoint x="457" y="130" as="sourcePoint" />
          </mxGeometry>
        </mxCell>
        <mxCell id="4iqiWPbh7gGqYWm0sbac-128" value="" style="edgeStyle=elbowEdgeStyle;elbow=horizontal;verticalAlign=bottom;endArrow=open;endSize=8;strokeColor=#FF0000;endFill=1;rounded=0;exitX=0.5;exitY=1;exitDx=0;exitDy=0;" edge="1" parent="2" source="4iqiWPbh7gGqYWm0sbac-48" target="4iqiWPbh7gGqYWm0sbac-57">
          <mxGeometry x="74.5" y="68" as="geometry">
            <mxPoint x="647" y="380" as="targetPoint" />
            <mxPoint x="647" y="265" as="sourcePoint" />
          </mxGeometry>
        </mxCell>
        <mxCell id="4iqiWPbh7gGqYWm0sbac-57" value="Slot Availability" style="rhombus;whiteSpace=wrap;html=1;" vertex="1" parent="2">
          <mxGeometry x="417" y="235" width="80" height="80" as="geometry" />
        </mxCell>
        <mxCell id="4iqiWPbh7gGqYWm0sbac-55" value="Update Slot" style="rhombus;whiteSpace=wrap;html=1;" vertex="1" parent="2">
          <mxGeometry x="417" y="345" width="80" height="80" as="geometry" />
        </mxCell>
        <mxCell id="4iqiWPbh7gGqYWm0sbac-126" value="" style="edgeStyle=elbowEdgeStyle;elbow=vertical;verticalAlign=bottom;endArrow=open;endSize=8;strokeColor=#FF0000;endFill=1;rounded=0;entryX=0.5;entryY=0;entryDx=0;entryDy=0;" edge="1" parent="2" target="4iqiWPbh7gGqYWm0sbac-55">
          <mxGeometry x="74.5" y="118" as="geometry">
            <mxPoint x="456.6700000000001" y="355" as="targetPoint" />
            <mxPoint x="456.1700000000001" y="315" as="sourcePoint" />
          </mxGeometry>
        </mxCell>
        <mxCell id="4iqiWPbh7gGqYWm0sbac-134" value="No" style="text;html=1;align=center;verticalAlign=middle;resizable=0;points=[];autosize=1;strokeColor=none;fillColor=none;" vertex="1" parent="2">
          <mxGeometry x="382" y="245" width="40" height="30" as="geometry" />
        </mxCell>
        <mxCell id="4iqiWPbh7gGqYWm0sbac-135" value="Yes" style="text;html=1;align=center;verticalAlign=middle;resizable=0;points=[];autosize=1;strokeColor=none;fillColor=none;" vertex="1" parent="2">
          <mxGeometry x="402" y="295" width="40" height="30" as="geometry" />
        </mxCell>
        <mxCell id="4iqiWPbh7gGqYWm0sbac-136" value="No" style="text;html=1;align=center;verticalAlign=middle;resizable=0;points=[];autosize=1;strokeColor=none;fillColor=none;" vertex="1" parent="2">
          <mxGeometry x="407" y="403" width="40" height="30" as="geometry" />
        </mxCell>
        <mxCell id="4iqiWPbh7gGqYWm0sbac-137" value="yes" style="text;html=1;align=center;verticalAlign=middle;resizable=0;points=[];autosize=1;strokeColor=none;fillColor=none;" vertex="1" parent="2">
          <mxGeometry x="482" y="355" width="40" height="30" as="geometry" />
        </mxCell>
        <mxCell id="4iqiWPbh7gGqYWm0sbac-124" value="" style="edgeStyle=elbowEdgeStyle;elbow=vertical;verticalAlign=bottom;endArrow=open;endSize=8;strokeColor=#FF0000;endFill=1;rounded=0;exitX=0.317;exitY=1.178;exitDx=0;exitDy=0;exitPerimeter=0;" edge="1" parent="2" source="4iqiWPbh7gGqYWm0sbac-137">
          <mxGeometry x="74.5" y="118" as="geometry">
            <mxPoint x="570" y="390" as="targetPoint" />
            <mxPoint x="730" y="380" as="sourcePoint" />
            <Array as="points">
              <mxPoint x="620" y="390" />
            </Array>
          </mxGeometry>
        </mxCell>
        <mxCell id="4iqiWPbh7gGqYWm0sbac-87" value="payment" style="" vertex="1" parent="2">
          <mxGeometry x="570" y="360" width="110" height="50" as="geometry" />
        </mxCell>
        <mxCell id="7" value="idle" style="" parent="1" vertex="1">
          <mxGeometry x="10" y="290" width="110" height="50" as="geometry" />
        </mxCell>
        <mxCell id="4iqiWPbh7gGqYWm0sbac-50" value="" style="rhombus;whiteSpace=wrap;html=1;" vertex="1" parent="1">
          <mxGeometry x="40" y="500" width="80" height="80" as="geometry" />
        </mxCell>
        <mxCell id="4iqiWPbh7gGqYWm0sbac-53" value="" style="rhombus;whiteSpace=wrap;html=1;" vertex="1" parent="1">
          <mxGeometry x="50" y="510" width="80" height="80" as="geometry" />
        </mxCell>
        <mxCell id="4iqiWPbh7gGqYWm0sbac-54" value="" style="rhombus;whiteSpace=wrap;html=1;" vertex="1" parent="1">
          <mxGeometry x="60" y="520" width="80" height="80" as="geometry" />
        </mxCell>
        <mxCell id="4iqiWPbh7gGqYWm0sbac-80" value="" style="html=1;verticalAlign=bottom;endArrow=open;dashed=1;endSize=8;curved=0;rounded=0;fillColor=#FF3333;" edge="1" parent="1">
          <mxGeometry relative="1" as="geometry">
            <mxPoint x="150" y="720" as="sourcePoint" />
            <mxPoint x="70" y="720" as="targetPoint" />
          </mxGeometry>
        </mxCell>
        <mxCell id="4iqiWPbh7gGqYWm0sbac-85" value="idle" style="" vertex="1" parent="1">
          <mxGeometry x="20" y="300" width="110" height="50" as="geometry" />
        </mxCell>
        <mxCell id="4iqiWPbh7gGqYWm0sbac-86" value="idle" style="" vertex="1" parent="1">
          <mxGeometry x="30" y="310" width="110" height="50" as="geometry" />
        </mxCell>
        <mxCell id="4iqiWPbh7gGqYWm0sbac-91" value="" style="edgeStyle=elbowEdgeStyle;elbow=vertical;verticalAlign=bottom;endArrow=open;endSize=8;strokeColor=#FF0000;endFill=1;rounded=0" edge="1" parent="1">
          <mxGeometry x="264.5" y="168" as="geometry">
            <mxPoint x="120.5" y="320" as="targetPoint" />
            <mxPoint x="120" y="280" as="sourcePoint" />
          </mxGeometry>
        </mxCell>
        <mxCell id="4iqiWPbh7gGqYWm0sbac-92" value="" style="edgeStyle=elbowEdgeStyle;elbow=vertical;verticalAlign=bottom;endArrow=open;endSize=8;strokeColor=#FF0000;endFill=1;rounded=0" edge="1" parent="1">
          <mxGeometry x="264.5" y="168" as="geometry">
            <mxPoint x="130.5" y="330" as="targetPoint" />
            <mxPoint x="130" y="290" as="sourcePoint" />
          </mxGeometry>
        </mxCell>
        <mxCell id="4iqiWPbh7gGqYWm0sbac-93" value="" style="edgeStyle=elbowEdgeStyle;elbow=vertical;verticalAlign=bottom;endArrow=open;endSize=8;strokeColor=#FF0000;endFill=1;rounded=0" edge="1" parent="1">
          <mxGeometry x="264.5" y="168" as="geometry">
            <mxPoint x="140.5" y="340" as="targetPoint" />
            <mxPoint x="140" y="300" as="sourcePoint" />
          </mxGeometry>
        </mxCell>
      </root>
    </mxGraphModel>
  </diagram>
</mxfile>
